<svg xmlns="http://www.w3.org/2000/svg">
<symbol id="0086-cloud-sync" viewBox="0 0 20 20">
    <path d="M4.481 15.787a.505.505 0 0 1-.138-.019 6.041 6.041 0 0 1-3.111-2.126A5.947 5.947 0 0 1 .001 10c0-3.308 2.692-6 6-6a6.01 6.01 0 0 1 4.261 1.776A3.007 3.007 0 0 1 13.001 4a3.004 3.004 0 0 1 2.828 4.004 4.004 4.004 0 0 1 3.536 6.162 4.005 4.005 0 0 1-1.649 1.449.5.5 0 0 1-.429-.903A3.015 3.015 0 0 0 19.001 12a3.004 3.004 0 0 0-4-2.83.5.5 0 0 1-.533-.812 2.002 2.002 0 0 0-1.467-3.359 2.001 2.001 0 0 0-1.996 1.875.5.5 0 0 1-.908.256 5.012 5.012 0 0 0-4.096-2.131c-2.757 0-5 2.243-5 5a5.021 5.021 0 0 0 3.618 4.807.5.5 0 0 1-.137.98z"/>
    <path d="M15.854 15.146a.5.5 0 0 0-.707 0l-.146.146v-.293a4.004 4.004 0 0 0-5.715-3.615.5.5 0 1 0 .429.903 3.004 3.004 0 0 1 4.286 2.712v.293l-.146-.146a.5.5 0 0 0-.707.707l1 1a.498.498 0 0 0 .708 0l1-1a.5.5 0 0 0 0-.707zm-2.902 2.803a.5.5 0 0 0-.666-.237A3.004 3.004 0 0 1 8 15v-.293l.146.146a.498.498 0 0 0 .708 0 .5.5 0 0 0 0-.707l-1-1a.5.5 0 0 0-.707 0l-1 1a.5.5 0 0 0 .707.707L7 14.707V15a4.004 4.004 0 0 0 5.715 3.615.5.5 0 0 0 .237-.666z"/>
</symbol>
</svg>
