<svg xmlns="http://www.w3.org/2000/svg">
<symbol id="0198-folder-picture" viewBox="0 0 20 20">
    <path d="M18.5 18h-17C.673 18 0 17.327 0 16.5V6c0-.352.119-.856.276-1.171l.553-1.106c.206-.413.71-.724 1.171-.724h7c.461 0 .965.311 1.171.724l.553 1.106A.406.406 0 0 0 11 5h7.5c.827 0 1.5.673 1.5 1.5v10c0 .827-.673 1.5-1.5 1.5zM2 4a.404.404 0 0 0-.276.171l-.553 1.106A2.056 2.056 0 0 0 1 6.001v10.5a.5.5 0 0 0 .5.5h17a.5.5 0 0 0 .5-.5v-10a.5.5 0 0 0-.5-.5H11c-.461 0-.965-.311-1.171-.724l-.553-1.106A.406.406 0 0 0 9 4H2z"/>
    <path d="M12.5 13c.827 0 1.5-.673 1.5-1.5s-.673-1.5-1.5-1.5-1.5.673-1.5 1.5.673 1.5 1.5 1.5zm0-2a.5.5 0 1 1 0 1 .5.5 0 0 1 0-1z"/>
    <path d="M15.5 8h-11a.5.5 0 0 0-.5.5v6a.5.5 0 0 0 .5.5h11a.5.5 0 0 0 .5-.5v-6a.5.5 0 0 0-.5-.5zM5 12.675l1.266-1.582c.073-.091.164-.142.259-.144s.189.044.266.131L9.387 14H5v-1.325zM15 14h-4.275l-3.187-3.585c-.272-.306-.651-.476-1.039-.466s-.758.199-1.014.519L5 11.074V8.999h10v5z"/>
</symbol>
</svg>
